<svg width="42" height="55" fill="none" xmlns="http://www.w3.org/2000/svg"><g opacity=".5" fill="#fff"><path d="M37.41 0H11.801a.806.806 0 100 1.611h25.61a2.237 2.237 0 012.233 2.234v47.31a2.237 2.237 0 01-2.234 2.234H3.845a2.237 2.237 0 01-2.234-2.234V3.845a2.237 2.237 0 012.234-2.234H8.63A.806.806 0 108.63 0H3.845A3.85 3.85 0 000 3.845v47.31A3.85 3.85 0 003.845 55H37.41a3.85 3.85 0 003.846-3.845V3.845A3.85 3.85 0 0037.41 0z"/><path d="M36.3 23.138H8.163a.806.806 0 100 1.611H36.3a.806.806 0 100-1.61zm.806 5.15a.806.806 0 00-.806-.806H8.163a.806.806 0 100 1.611H36.3c.445 0 .806-.36.806-.805zm-16.478 3.538H8.163a.806.806 0 100 1.612h12.465a.806.806 0 100-1.612zm0 4.344H8.163a.806.806 0 100 1.612h12.465a.806.806 0 100-1.611zM7.357 15.255c0 .445.36.806.806.806H36.3a.806.806 0 100-1.611H8.163a.806.806 0 00-.806.805zM36.3 18.794H8.163a.806.806 0 100 1.611H36.3a.806.806 0 100-1.611zM5.188 24.752a.809.809 0 100-1.617.809.809 0 000 1.617zm0-8.688a.809.809 0 100-1.617.809.809 0 000 1.617zm0 4.344a.809.809 0 100-1.617.809.809 0 000 1.617zm0 8.688a.809.809 0 100-1.617.809.809 0 000 1.617zm0 4.344a.809.809 0 100-1.617.809.809 0 000 1.618zm0 4.345a.809.809 0 100-1.618.809.809 0 000 1.618zm15.44 2.729H8.163a.806.806 0 100 1.612h12.465a.806.806 0 100-1.611zm-15.44 1.615a.809.809 0 100-1.617.809.809 0 000 1.617zm16.245 3.536a.806.806 0 00-.805-.806H8.163a.806.806 0 100 1.611h12.465c.445 0 .805-.36.805-.805zM5.188 50.814h4.52a.806.806 0 100-1.611h-4.52a.806.806 0 100 1.611zm25.768 0h4.52a.806.806 0 100-1.611h-4.52a.806.806 0 100 1.611zM5.188 46.473a.809.809 0 100-1.617.809.809 0 000 1.617zM17.035 5.751a.806.806 0 100-1.61h-2.392a.806.806 0 00-.805.805v5.901a.806.806 0 101.611 0v-2.2h1.397a.806.806 0 100-1.612h-1.397V5.75h1.586zm6.093 0a.806.806 0 100-1.61h-2.392a.806.806 0 00-.806.805v5.901a.806.806 0 101.612 0v-2.2h1.396a.806.806 0 100-1.612h-1.396V5.75h1.586zm5.744-.05a.806.806 0 100-1.611H26.39a.806.806 0 00-.806.805v5.89c0 .446.361.806.806.806h2.482a.806.806 0 100-1.611h-1.676V8.646h1.493a.806.806 0 100-1.611h-1.493V5.7h1.676zm7.941.712c0-1.296-1.094-2.35-2.438-2.35h-1.582a.806.806 0 00-.806.805v5.945a.806.806 0 101.612 0V9.296l1.804 2.05a.804.804 0 001.137.072.806.806 0 00.072-1.138l-1.447-1.644c.958-.317 1.648-1.193 1.648-2.223zm-2.438.74c-.181 0-.48 0-.768.002l-.002-.742-.002-.74h.772c.448 0 .827.34.827.74 0 .4-.379.74-.827.74zM8.02 4.118a3.783 3.783 0 00-3.78 3.778 3.783 3.783 0 003.779 3.778 3.783 3.783 0 003.778-3.778A3.783 3.783 0 008.02 4.118zm0 5.945a2.17 2.17 0 01-2.168-2.167A2.17 2.17 0 018.02 5.73a2.17 2.17 0 012.167 2.166 2.17 2.17 0 01-2.167 2.167zM30.245 46.36a.805.805 0 00.805-.806v-.403h.32a2.655 2.655 0 002.652-2.652v-1.382a2.655 2.655 0 00-2.652-2.651h-.32v-3.462h.32c.574 0 1.04.467 1.04 1.04v.155a.806.806 0 101.612 0v-.155a2.655 2.655 0 00-2.652-2.651h-.32v-.65a.806.806 0 10-1.61 0v.65h-.32a2.655 2.655 0 00-2.652 2.651v1.382a2.655 2.655 0 002.651 2.651h.32v3.462h-.32c-.573 0-1.04-.466-1.04-1.04a.806.806 0 10-1.611 0 2.655 2.655 0 002.651 2.652h.32v.403c0 .445.36.805.806.805zm-1.126-7.894c-.573 0-1.04-.467-1.04-1.04v-1.382c0-.573.467-1.04 1.04-1.04h.32v3.462h-.32zm1.931 1.611h.32c.574 0 1.04.467 1.04 1.04V42.5a1.04 1.04 0 01-1.04 1.04h-.32v-3.462z"/></g></svg>