<svg width="53" height="52" fill="none" xmlns="http://www.w3.org/2000/svg"><g opacity=".5" fill="#fff"><path d="M26.55 21.281a3.694 3.694 0 003.653 4.208c1.001 0 1.91-.4 2.575-1.05h10.82a2.283 2.283 0 002.28-2.28 2.283 2.283 0 00-2.28-2.28H33.355a3.692 3.692 0 00-3.42-1.759l-5.38-8.268a2.284 2.284 0 00-3.154-.667 2.263 2.263 0 00-.988 1.44 2.267 2.267 0 00.32 1.715l5.819 8.941zm17.049.122a.757.757 0 010 1.513H33.72a3.679 3.679 0 00.151-1.513H43.6zM32.37 21.8a2.169 2.169 0 01-2.166 2.167 2.169 2.169 0 01-2.167-2.167 2.17 2.17 0 012.167-2.166A2.17 2.17 0 0132.37 21.8zM21.903 10.94a.758.758 0 011.374-.256l5.136 7.892a3.7 3.7 0 00-1.153 1.002l-5.25-8.068a.753.753 0 01-.107-.57z"/><path d="M45.514 6.49A22.018 22.018 0 0029.843 0a22.017 22.017 0 00-15.67 6.49A22.015 22.015 0 007.68 22.16c0 2.197.321 4.362.952 6.44a5.86 5.86 0 00-.183 1.146H2.322A2.325 2.325 0 000 32.068v17.61A2.324 2.324 0 002.321 52H29.94a2.324 2.324 0 002.321-2.321v-5.49a22.08 22.08 0 0013.81-6.936 22.084 22.084 0 005.934-15.093 22.019 22.019 0 00-6.49-15.67zM26.722 50.477h-4.208a2.7 2.7 0 00.23-1.659l-.288-1.612a4.254 4.254 0 00-2.73-3.24l-.985-.357v-1.582a3.846 3.846 0 001.1-2.677v-2.121a3.733 3.733 0 00-3.73-3.729 3.733 3.733 0 00-3.728 3.729v2.188c0 1.022.422 1.955 1.1 2.632v1.589l-.93.337a4.265 4.265 0 00-2.72 3.19l-.31 1.621a2.699 2.699 0 00.224 1.691H5.539a4.849 4.849 0 00-4.015-4.014v-7.795a4.07 4.07 0 001.544.772l7.007 1.791a.762.762 0 00.378-1.476l-7.008-1.79a2.553 2.553 0 01-1.92-2.475v-3.421a.8.8 0 01.797-.798H29.94c.44 0 .798.358.798.798v3.425a2.553 2.553 0 01-1.921 2.47l-3.529.902-.019.005-3.813.975a.762.762 0 10.378 1.476l3.795-.97.018-.005 3.548-.907a4.07 4.07 0 001.543-.771v7.794a4.848 4.848 0 00-4.016 4.014zm-11.685-12.2c.381.266.899.4 1.49.4.55 0 1.164-.117 1.79-.349v1.022a2.31 2.31 0 01-.693 1.64 2.14 2.14 0 01-1.555.63 2.216 2.216 0 01-2.162-2.203v-2.188c0-1.216.99-2.205 2.205-2.205 1.034 0 1.903.715 2.14 1.676a4.87 4.87 0 01-.335.152c-.98.392-1.776.337-2.005.177a.762.762 0 00-.875 1.247zm1.002 4.867l.071.001c.38 0 .753-.06 1.108-.173v.796a2.094 2.094 0 01-2.211 0v-.793a3.71 3.71 0 001.032.17zm-1.9 1.876a3.606 3.606 0 001.973.584c.7 0 1.4-.201 2.002-.602l1.092.396a2.726 2.726 0 011.75 2.077l.288 1.612a1.179 1.179 0 01-1.164 1.39h-7.9a1.18 1.18 0 01-1.16-1.404l.31-1.62c.18-.937.847-1.72 1.743-2.046l1.067-.387zm-.991-15.318c.2-.63.79-1.088 1.486-1.088h2.993c.696 0 1.286.458 1.486 1.088h-5.965zm7.527 0a3.089 3.089 0 00-3.048-2.612h-2.993a3.089 3.089 0 00-3.048 2.612H9.98a4.37 4.37 0 014.347-3.963h3.608A4.37 4.37 0 0122.28 29.7h-1.606zM2.321 50.477a.799.799 0 01-.797-.798v-1.666a3.325 3.325 0 012.464 2.464H2.321zm28.417-.798c0 .44-.358.797-.798.797h-1.667a3.325 3.325 0 012.465-2.463v1.666zm14.218-13.464a20.56 20.56 0 01-12.695 6.44v-1.907a18.692 18.692 0 0011.39-5.921A18.692 18.692 0 0048.58 22.16c0-10.336-8.41-18.744-18.746-18.744-10.337 0-18.747 8.408-18.747 18.744a.762.762 0 101.524 0c0-9.495 7.726-17.22 17.223-17.22s17.223 7.725 17.223 17.22c0 4.322-1.608 8.455-4.527 11.637a17.174 17.174 0 01-10.268 5.414v-7.143a2.324 2.324 0 00-2.32-2.322h-6.13a5.895 5.895 0 00-5.876-5.532h-3.608a5.88 5.88 0 00-4.662 2.298 20.713 20.713 0 01-.46-4.352c0-11.379 9.258-20.637 20.638-20.637 11.38 0 20.639 9.258 20.639 20.637a20.566 20.566 0 01-5.526 14.055z"/></g></svg>