<svg width="51" height="52" fill="none" xmlns="http://www.w3.org/2000/svg"><path d="M20.222 13.468h10.525c.912 0 1.653-.742 1.653-1.654V4.842c0-.911-.741-1.653-1.653-1.653h-2.452V1.791C28.295.803 27.49 0 26.504 0h-2.039c-.987 0-1.79.803-1.79 1.79v1.4h-2.453c-.912 0-1.653.74-1.653 1.652v6.972c0 .912.741 1.654 1.653 1.654zM24.198 1.79c0-.148.12-.268.267-.268h2.039c.147 0 .267.12.267.268v1.398h-2.573V1.791zm-4.106 3.051a.13.13 0 01.13-.13h10.525a.13.13 0 01.13.13v6.972a.13.13 0 01-.13.13H20.222a.13.13 0 01-.13-.13V4.842zm-6.26 6.973V4.842c0-.911-.742-1.653-1.654-1.653H9.726V1.791C9.726.803 8.923 0 7.936 0h-2.04c-.987 0-1.79.803-1.79 1.79v1.4H1.653C.742 3.19 0 3.93 0 4.841v6.972c0 .912.742 1.653 1.653 1.653h10.525c.912 0 1.654-.741 1.654-1.653zM5.629 1.791c0-.148.12-.268.267-.268h2.04c.147 0 .267.12.267.268v1.398H5.629V1.791zM1.523 11.814V4.842a.13.13 0 01.13-.13h10.525a.13.13 0 01.13.13v6.972a.13.13 0 01-.13.13H1.653a.13.13 0 01-.13-.13zm47.399-8.625h-2.453V1.791A1.791 1.791 0 0044.68 0h-2.04c-.987 0-1.79.803-1.79 1.79v1.4h-2.453c-.911 0-1.653.74-1.653 1.652v6.972c0 .912.742 1.653 1.653 1.653h10.526c.911 0 1.653-.741 1.653-1.653V4.842c0-.911-.742-1.653-1.654-1.653zm-6.55-1.398c0-.148.12-.268.268-.268h2.038c.148 0 .268.12.268.268v1.398h-2.574V1.791zm6.68 10.023a.13.13 0 01-.13.13H38.395a.13.13 0 01-.13-.13V4.842a.13.13 0 01.13-.13h10.526a.13.13 0 01.13.13v6.972zm-5.392 5.052a.762.762 0 00-.763.762c0 .974-.792 1.767-1.767 1.767H26.215v-1.767a.762.762 0 10-1.523 0v1.767H9.444a1.769 1.769 0 01-1.766-1.767.762.762 0 10-1.524 0 3.294 3.294 0 003.29 3.29h15.248v2.094a.762.762 0 101.523 0v-2.094H41.13a3.294 3.294 0 003.29-3.29c0-.42-.34-.762-.76-.762zm-9.518 28.687a5.738 5.738 0 00-3.68-4.37l-1.614-.585v-2.613l.025-.022a5.153 5.153 0 001.54-3.655v-3.021a4.992 4.992 0 00-4.986-4.986 4.992 4.992 0 00-4.987 4.986v3.115a4.98 4.98 0 001.567 3.615v2.623l-1.537.557a5.745 5.745 0 00-3.666 4.301l-.442 2.309a3.518 3.518 0 00.746 2.912A3.52 3.52 0 0019.83 52h11.248c1.048 0 2.035-.46 2.707-1.264a3.522 3.522 0 00.768-2.888l-.41-2.295zM21.964 31.287a3.467 3.467 0 013.463-3.463 3.468 3.468 0 013.413 2.885c-.23.125-.473.24-.724.34-1.434.575-2.698.541-3.16.218a.762.762 0 10-.875 1.247c.483.338 1.16.506 1.936.506.815 0 1.74-.185 2.666-.556.07-.028.138-.057.206-.087v1.93a3.62 3.62 0 01-1.083 2.568 3.373 3.373 0 01-2.448.99 3.48 3.48 0 01-3.394-3.463v-3.115zm3.365 8.1c.032.002.063.002.095.002a4.84 4.84 0 001.9-.388v1.77a3.303 3.303 0 01-3.794-.001v-1.761a4.913 4.913 0 001.8.379zm7.287 10.37a2.002 2.002 0 01-1.538.72H19.83a2 2 0 01-1.547-.729 2 2 0 01-.424-1.655l.442-2.309a4.215 4.215 0 012.689-3.155l1.674-.607a4.806 4.806 0 002.764.869c.986 0 1.972-.3 2.803-.896l1.711.62a4.21 4.21 0 012.7 3.206l.41 2.296a2.002 2.002 0 01-.436 1.64z" opacity=".5" fill="#fff"/></svg>