<svg width="14" height="14" viewBox="0 0 14 14" fill="none" xmlns="http://www.w3.org/2000/svg">
<path fill-rule="evenodd" clip-rule="evenodd" d="M14 7C14 10.866 10.866 14 7 14C3.13401 14 0 10.866 0 7C0 3.13401 3.13401 0 7 0C10.866 0 14 3.13401 14 7ZM7.7 2.8C7.7 2.4134 7.3866 2.1 7 2.1C6.6134 2.1 6.3 2.4134 6.3 2.8V7C6.3 7.26514 6.4498 7.50752 6.68695 7.6261L9.48695 9.0261C9.83274 9.19899 10.2532 9.05883 10.4261 8.71305C10.599 8.36726 10.4588 7.94679 10.113 7.7739L7.7 6.56738V2.8Z" fill="#535353"/>
</svg>
