<svg width="35" height="35" fill="none" xmlns="http://www.w3.org/2000/svg"><circle cx="17.5" cy="17.5" r="17.5" fill="#B70046"/><path d="M22.957 19.533a7.382 7.382 0 01-2.318-.37c-.363-.123-.81-.01-1.03.218l-1.462 1.104c-1.695-.905-2.74-1.95-3.632-3.632l1.07-1.423a1.05 1.05 0 00.26-1.065 7.392 7.392 0 01-.371-2.322c0-.575-.468-1.043-1.043-1.043h-2.388c-.575 0-1.043.468-1.043 1.043C11 18.636 16.364 24 22.957 24c.575 0 1.043-.468 1.043-1.043v-2.38c0-.576-.468-1.044-1.043-1.044z" fill="#fff"/></svg>