<svg xmlns="http://www.w3.org/2000/svg" xmlns:xlink="http://www.w3.org/1999/xlink"><symbol id="icon-check"><path d="M16 31c8.284 0 15-6.716 15-15 0-8.284-6.716-15-15-15C7.716 1 1 7.716 1 16c0 8.284 6.716 15 15 15z" stroke="#B70046" stroke-width="1.3" stroke-linecap="round" stroke-linejoin="round"/><path d="M22.111 12.111l-7.639 7.778L11 16.354" stroke="#fff" stroke-width="1.3" stroke-linecap="round" stroke-linejoin="round"/></symbol><symbol id="icon-git"><path d="M1 11V7a6 6 0 1112 0v4" stroke="#fff" stroke-width="1.5" stroke-linecap="round" stroke-linejoin="round"/><path d="M13 11.667A1.334 1.334 0 0111.667 13H11a1.333 1.333 0 01-1.333-1.333v-2A1.333 1.333 0 0111 8.333h2v3.334zm-12 0A1.333 1.333 0 002.333 13H3a1.334 1.334 0 001.333-1.333v-2A1.333 1.333 0 003 8.333H1v3.334z" stroke="#fff" stroke-width="1.5" stroke-linecap="round" stroke-linejoin="round"/></symbol><symbol id="icon-mail"><circle cx="17.5" cy="17.5" r="17.5" fill="#B70046"/><path d="M12.4 12h11.2c.77 0 1.4.63 1.4 1.4v8.4c0 .77-.63 1.4-1.4 1.4H12.4c-.77 0-1.4-.63-1.4-1.4v-8.4c0-.77.63-1.4 1.4-1.4z" fill="#fff"/><path d="M25 13.4l-7 4.9-7-4.9" stroke="#B70046" stroke-linecap="round" stroke-linejoin="round"/></symbol><symbol id="icon-phone"><circle cx="17.5" cy="17.5" r="17.5" fill="#B70046"/><path d="M22.957 19.533a7.382 7.382 0 01-2.318-.37c-.363-.123-.81-.01-1.03.218l-1.462 1.104c-1.695-.905-2.74-1.95-3.632-3.632l1.07-1.423a1.05 1.05 0 00.26-1.065 7.392 7.392 0 01-.371-2.322c0-.575-.468-1.043-1.043-1.043h-2.388c-.575 0-1.043.468-1.043 1.043C11 18.636 16.364 24 22.957 24c.575 0 1.043-.468 1.043-1.043v-2.38c0-.576-.468-1.044-1.043-1.044z" fill="#fff"/></symbol><symbol id="icon-toggle"><path d="M3 13h2v-2H3v2zm0 4h2v-2H3v2zm0-8h2V7H3v2zm4 4h14v-2H7v2zm0 4h14v-2H7v2zM7 7v2h14V7H7z"/><path d="M0 0h24v24H0z" fill="none"/></symbol></svg>