<svg width="51" height="50" fill="none" xmlns="http://www.w3.org/2000/svg"><g opacity=".5" fill="#fff"><path d="M49.797 33.542a.74.74 0 00.74-.74V11.557a4.38 4.38 0 00-4.375-4.376H26.879a4.98 4.98 0 01-3.777-1.732l-2.76-3.203A6.462 6.462 0 0015.441 0H4.375A4.38 4.38 0 000 4.375v36.052a4.38 4.38 0 004.375 4.376h.56v2.468A2.732 2.732 0 007.663 50h35.21a2.732 2.732 0 002.73-2.73v-2.467h.559a4.38 4.38 0 004.375-4.376v-4.385a.74.74 0 10-1.48 0v4.385a2.898 2.898 0 01-2.895 2.895h-.56V24.813a2.732 2.732 0 00-2.729-2.729h-8.61v-1.307a5.418 5.418 0 00-5.413-5.412h-7.163a5.418 5.418 0 00-5.413 5.412v1.307h-8.61a2.732 2.732 0 00-2.73 2.73v18.508h-.559a2.898 2.898 0 01-2.894-2.895V4.375a2.898 2.898 0 012.894-2.894h11.067c1.452 0 2.83.63 3.778 1.732l2.76 3.202a6.458 6.458 0 004.9 2.247h19.282a2.898 2.898 0 012.894 2.895v21.245c0 .409.332.74.74.74zm-38.742-.472l-2.017-.516a3.485 3.485 0 01-2.623-3.378v-4.363c0-.688.56-1.248 1.248-1.248h35.21c.689 0 1.248.56 1.248 1.248v4.363a3.485 3.485 0 01-2.622 3.378l-14.993 3.834a5.008 5.008 0 01-2.475 0l-10.113-2.586a.74.74 0 00-.366 1.435l10.112 2.585a6.484 6.484 0 003.209 0l14.993-3.833a4.956 4.956 0 002.255-1.275V43.37a5.947 5.947 0 00-5.148 5.15H11.564a5.947 5.947 0 00-5.149-5.15V32.714a4.952 4.952 0 002.256 1.275l2.017.516a.74.74 0 10.367-1.435zm18.626-11.043h-8.825v-.754c0-.847.689-1.536 1.536-1.536h5.753c.847 0 1.536.689 1.536 1.536v.754zM7.663 48.519a1.25 1.25 0 01-1.248-1.248v-2.406a4.468 4.468 0 013.655 3.654H7.663zm36.458-1.248a1.25 1.25 0 01-1.248 1.248h-2.406a4.468 4.468 0 013.654-3.654v2.406zM17.755 20.777a3.936 3.936 0 013.932-3.932h7.163a3.936 3.936 0 013.932 3.932v1.25h-1.62v-.754a3.02 3.02 0 00-3.017-3.017h-5.753a3.02 3.02 0 00-3.017 3.017v.754h-1.62v-1.25z"/><path d="M25.268 41.797a.74.74 0 00.74-.74v-1.032a.74.74 0 10-1.48 0v1.032c0 .408.332.74.74.74z"/></g></svg>