<svg width="43" height="55" fill="none" xmlns="http://www.w3.org/2000/svg"><g opacity=".5" fill="#fff"><path d="M8.58 15.425l-.93.337a4.377 4.377 0 00-2.795 3.278l-.317 1.654c-.157.82.059 1.66.59 2.303a2.78 2.78 0 002.15 1.012h8.064c.828 0 1.608-.364 2.14-1a2.784 2.784 0 00.606-2.282l-.294-1.645a4.372 4.372 0 00-2.805-3.33l-.985-.357V13.94a.81.81 0 00-.01-.12 3.954 3.954 0 001.131-2.752V8.903a3.838 3.838 0 00-3.834-3.833 3.838 3.838 0 00-3.834 3.833v2.233a3.82 3.82 0 001.13 2.705.817.817 0 00-.007.1v1.484zm7.627 3.94l.295 1.646a1.177 1.177 0 01-1.16 1.387H7.278a1.176 1.176 0 01-1.157-1.4l.317-1.656A2.758 2.758 0 018.2 17.277l.608-.22c.015.015.03.031.047.046a3.697 3.697 0 002.437.909c.87 0 1.74-.303 2.434-.908l.014-.012a.758.758 0 00.057-.058l.643.233a2.756 2.756 0 011.768 2.099zM9.069 8.904c0-1.225.998-2.222 2.223-2.222 1.034 0 1.903.711 2.15 1.67a4.79 4.79 0 01-.318.141c-.991.397-1.791.344-2.02.184a.805.805 0 10-.925 1.32c.393.275.927.413 1.537.413.553 0 1.17-.115 1.799-.343v1.002a2.33 2.33 0 01-.7 1.655 2.244 2.244 0 01-.747.488 2.11 2.11 0 01-.82.147 2.233 2.233 0 01-2.178-2.222V8.903zm2.148 6.066h.074c.378 0 .749-.056 1.103-.165v1.288a2.108 2.108 0 01-2.202 0v-1.286c.326.099.67.156 1.025.163zm19.295 22.026a.806.806 0 00-.806-.805H8.28a.806.806 0 100 1.611h21.427c.445 0 .806-.36.806-.806zM8.28 40.535a.806.806 0 100 1.611h20.619a.806.806 0 100-1.611H8.279zm24.13-12.227a.806.806 0 00-.805-.805H8.279a.806.806 0 100 1.61h23.326c.445 0 .805-.36.805-.805zm-1.045 4.344a.806.806 0 00-.806-.805H8.279a.806.806 0 100 1.611h22.28c.445 0 .806-.36.806-.806zM5.304 37.805a.809.809 0 100-1.617.809.809 0 000 1.617zm0-8.688a.809.809 0 100-1.618.809.809 0 000 1.618zm0 4.343a.809.809 0 100-1.616.809.809 0 000 1.617zm0 8.69a.809.809 0 100-1.618.809.809 0 000 1.617z"/><path d="M42.29 17.943a2.966 2.966 0 00-1.035-.965v-3.292a2.53 2.53 0 00-.74-1.78L29.297.732a2.483 2.483 0 00-.678-.48l-.033-.017-.027-.013-.01-.004-.014-.006A2.507 2.507 0 0027.521 0H3.846A3.85 3.85 0 000 3.845V41.1a.806.806 0 101.611 0V3.845a2.237 2.237 0 012.235-2.234h23.576v6.916a5.262 5.262 0 005.256 5.255h2.672a.805.805 0 100-1.611h-2.672a3.648 3.648 0 01-3.645-3.644V2.745L39.38 13.047a.908.908 0 01.265.639v2.917a2.985 2.985 0 00-2.763 2.371L31.902 43a.821.821 0 00-.002.315l.773 4.057c-.1.045-.199.092-.294.137-1.3.617-2.778.24-4.057.871-.38.374-1.055.445-1.505.158-.45-.288-.669-.93-.489-1.432a.806.806 0 00-1.37-.797c-.988 1.153-2.618 1.559-4.49 1.936a.806.806 0 10.319 1.58c1.212-.245 2.748-.555 4.047-1.34a2.82 2.82 0 001.115 1.41c.452.29.979.43 1.506.43.72 0 1.439-.263 1.969-.769 1.15.01 2.597-.094 3.645-.591.263-.125.497-.236.713-.285a1.344 1.344 0 001.377-.564l2.458-3.618a.826.826 0 00.123-.289l1.904-9.192v16.138a2.237 2.237 0 01-2.234 2.234H3.846a2.237 2.237 0 01-2.235-2.234v-6.562a.806.806 0 10-1.611 0v6.562A3.85 3.85 0 003.846 55H37.41a3.85 3.85 0 003.845-3.845V27.24l1.463-7.057a2.96 2.96 0 00-.428-2.24zm-2.22.294l.007.002a1.386 1.386 0 01.135.035c.3.094.556.287.731.554.201.305.271.67.197 1.029l-.264 1.272-2.681-.555.263-1.273a1.371 1.371 0 011.611-1.064zm-2.202 3.915l2.681.555-.356 1.722-2.682-.555.357-1.723zm-.684 3.3l2.682.555-.205.988v.003l-3.336 16.095-2.681-.555 3.54-17.087zm-3.002 21.233l-.474-2.488 1.898.393-1.424 2.095z"/></g></svg>