<svg width="51" height="54" fill="none" xmlns="http://www.w3.org/2000/svg"><path d="M38.849 29.66a5.602 5.602 0 013.33 5.118v2.675a.79.79 0 101.583 0v-2.675a7.189 7.189 0 00-4.281-6.569l-8.578-3.676.002-.065v-3.414a8.552 8.552 0 002.882-6.404l.003-6.609a8.524 8.524 0 00-1.529-4.887 8.563 8.563 0 00-3.92-3.1.791.791 0 00-.88.212l-1.193 1.346a3.69 3.69 0 01-2.732 1.213H21.19a4.554 4.554 0 00-4.549 4.549v7.276a8.552 8.552 0 002.885 6.406v3.412c0 .033.003.066.003.098l-8.464 3.68a7.166 7.166 0 00-4.396 6.618v2.59a.791.791 0 101.582 0v-2.59a5.59 5.59 0 013.436-5.164l4.204-1.827a10.04 10.04 0 003.303 4.235 10.008 10.008 0 006.02 1.992 10.097 10.097 0 005.56-1.668.791.791 0 10-.872-1.32 8.513 8.513 0 01-4.687 1.406 8.472 8.472 0 01-7.874-5.276l2.448-1.064a5.696 5.696 0 005.427 3.98 5.687 5.687 0 005.438-4.01l2.451 1.05a8.472 8.472 0 01-.946 1.73.79.79 0 101.29.916c.449-.633.82-1.31 1.11-2.023l4.29 1.839zM18.222 14.65v-2.281a3.842 3.842 0 002.277-1.394.791.791 0 10-1.243-.979 2.279 2.279 0 01-1.034.738v-3.36a2.97 2.97 0 012.967-2.967h2.347a5.279 5.279 0 003.91-1.74l.817-.922a6.95 6.95 0 013.945 6.296v1.616a8.923 8.923 0 01-3.11.555 8.94 8.94 0 01-6.236-2.516.791.791 0 00-1.098 1.138 10.515 10.515 0 007.334 2.96c1.064 0 2.105-.155 3.105-.463.003.047.002 3.319.002 3.319a6.998 6.998 0 01-6.991 6.99c-3.855 0-6.992-3.135-6.992-6.99zm6.993 13.925a4.109 4.109 0 01-4.108-4.107v-2.295a8.521 8.521 0 004.107 1.05 8.52 8.52 0 004.109-1.051v2.296a4.102 4.102 0 01-4.108 4.107zm6.55 15.786l-3.86-.56-1.725-3.497a1.062 1.062 0 00-.959-.596c-.41 0-.777.229-.958.596L22.537 43.8l-3.86.56a1.062 1.062 0 00-.862.728c-.127.39-.023.81.27 1.095l2.793 2.722-.66 3.843a1.067 1.067 0 001.552 1.127l3.451-1.815 3.453 1.815a1.069 1.069 0 001.55-1.127l-.66-3.843 2.793-2.722c.294-.285.398-.705.27-1.095a1.062 1.062 0 00-.862-.728zm-7.004-3.357v.001zm3.506 6.958a1.069 1.069 0 00-.307.946l.53 3.084-2.771-1.456a1.069 1.069 0 00-.995 0l-2.77 1.456.529-3.084c.06-.347-.055-.7-.308-.947l-2.24-2.184 3.097-.45c.348-.05.649-.269.804-.584l1.385-2.806 1.385 2.806c.156.315.457.534.805.584l3.097.45-2.24 2.185zm-14.264-3.601l-3.86-.56-1.725-3.497a1.062 1.062 0 00-.958-.596c-.41 0-.777.229-.959.596L4.775 43.8l-3.86.56a1.062 1.062 0 00-.862.728c-.127.39-.023.81.27 1.095l2.793 2.722-.659 3.843c-.07.404.094.805.425 1.046.332.24.763.272 1.126.081L7.46 52.06l3.452 1.815a1.069 1.069 0 001.55-1.127l-.66-3.843 2.793-2.722c.294-.285.398-.705.271-1.095a1.062 1.062 0 00-.863-.728zM7 41.004v.001zm3.506 6.958a1.069 1.069 0 00-.307.946l.53 3.084-2.771-1.456a1.069 1.069 0 00-.995 0l-2.77 1.456.529-3.084a1.07 1.07 0 00-.307-.947l-2.241-2.184 3.097-.45c.348-.05.649-.269.804-.584l1.386-2.806 1.385 2.806c.155.315.456.534.804.584l3.097.45-2.24 2.185zm39.871-2.873a1.062 1.062 0 00-.863-.728l-3.86-.56-1.725-3.497a1.062 1.062 0 00-.959-.596c-.41 0-.777.229-.958.596L40.286 43.8l-3.86.56a1.062 1.062 0 00-.862.728c-.127.39-.023.81.27 1.095l2.793 2.722-.66 3.843c-.069.404.094.805.426 1.046.331.24.762.272 1.125.081l3.452-1.815 3.452 1.815a1.069 1.069 0 001.55-1.127l-.659-3.843 2.793-2.722c.294-.286.397-.705.27-1.095zm-7.867-4.085v.001zm3.506 6.958a1.066 1.066 0 00-.307.946l.529 3.084-2.77-1.456a1.07 1.07 0 00-.995 0l-2.77 1.456.529-3.084a1.07 1.07 0 00-.308-.947l-2.24-2.184 3.096-.45c.349-.05.65-.269.805-.584l1.385-2.806 1.385 2.806c.156.315.457.534.805.584l3.097.45-2.241 2.185z" opacity=".5" fill="#fff"/></svg>