<svg width="48" height="56" fill="none" xmlns="http://www.w3.org/2000/svg"><g opacity=".5" fill="#fff"><path d="M19.44 48.983a6.242 6.242 0 00-4.007-4.755l-1.766-.641v-2.86l.03-.028a5.606 5.606 0 001.676-3.976V33.43c0-.363-.037-.717-.105-1.06a3.66 3.66 0 002.807-3.553 3.659 3.659 0 00-3.656-3.654 3.66 3.66 0 00-3.58 2.916 5.433 5.433 0 00-6.322 5.35v3.397c0 1.54.659 2.942 1.708 3.935v2.872l-1.681.61A6.258 6.258 0 00.55 48.924l-.482 2.517a3.826 3.826 0 00.812 3.166A3.828 3.828 0 003.84 56h12.267c1.14 0 2.213-.501 2.945-1.375a3.83 3.83 0 00.836-3.14l-.449-2.502zm-5.02-22.18c1.11 0 2.015.903 2.015 2.013a2.016 2.016 0 01-1.74 1.993 5.464 5.464 0 00-2.278-2.207 2.016 2.016 0 012.002-1.799zM6.157 33.43a3.79 3.79 0 013.787-3.785 3.79 3.79 0 013.787 3.785v.126a3.36 3.36 0 01-4.418-.669.82.82 0 10-1.26 1.05 4.994 4.994 0 005.678 1.455v1.332a3.956 3.956 0 01-1.184 2.805 3.702 3.702 0 01-2.677 1.082 3.805 3.805 0 01-3.713-3.784V33.43zm3.68 8.822h.104c.725 0 1.43-.147 2.084-.428v1.974l-2.08 1.815-2.08-1.816v-1.964a5.37 5.37 0 001.973.419zm.113 10.17L8.913 49.32l1.006-1.267.929 1.265-.897 3.105zm-7.805 1.14a2.19 2.19 0 01-.466-1.812l.482-2.517a4.609 4.609 0 012.941-3.447l1.798-.652 1.915 1.67-1.464 1.844a.82.82 0 00-.136.77l1.653 4.942H3.84c-.657 0-1.274-.29-1.693-.797zm15.648.011c-.42.5-1.034.787-1.687.787H11.1l1.436-4.975a.82.82 0 00-.127-.713l-1.356-1.848 1.974-1.723 1.847.67a4.597 4.597 0 012.95 3.503l.449 2.501a2.194 2.194 0 01-.48 1.798zm29.684-2.087l-.448-2.503a6.245 6.245 0 00-4.006-4.755l-1.767-.641v-2.86l.03-.028a5.606 5.606 0 001.676-3.976v-3.294a5.433 5.433 0 00-5.427-5.425 5.433 5.433 0 00-5.428 5.425v3.397c0 1.54.659 2.942 1.708 3.935v2.872l-1.682.61a6.254 6.254 0 00-3.992 4.68l-.482 2.517a3.824 3.824 0 00.81 3.166A3.829 3.829 0 0031.43 56h12.268a3.83 3.83 0 002.945-1.375 3.829 3.829 0 00.835-3.14zm-13.73-18.057a3.79 3.79 0 013.788-3.785 3.792 3.792 0 013.734 3.161c-.253.138-.52.264-.797.376-1.568.627-2.95.589-3.456.234a.82.82 0 10-.942 1.344c.524.367 1.26.55 2.104.55.888 0 1.896-.202 2.904-.605l.24-.101v2.12a3.956 3.956 0 01-1.184 2.805c-.732.717-1.682 1.104-2.678 1.082a3.805 3.805 0 01-3.712-3.784v-3.397zm3.682 8.822h.103a5.27 5.27 0 002.084-.428v1.95a3.614 3.614 0 01-4.16 0v-1.941a5.35 5.35 0 001.973.419zm7.955 11.32a2.194 2.194 0 01-1.687.788H31.43c-.659 0-1.276-.29-1.696-.798a2.188 2.188 0 01-.464-1.812l.482-2.517a4.605 4.605 0 012.94-3.447l1.83-.664a5.232 5.232 0 003.014.948c1.075 0 2.15-.326 3.057-.978l1.87.679a4.6 4.6 0 012.951 3.502l.448 2.502a2.191 2.191 0 01-.478 1.798zM6.696 20.17h2.24v3.753a.82.82 0 001.401.58l4.335-4.333h17.722l4.334 4.333a.82.82 0 001.4-.58V20.17h2.242a5.439 5.439 0 005.434-5.432V5.432A5.44 5.44 0 0040.37 0H6.696a5.439 5.439 0 00-5.434 5.432v9.306a5.439 5.439 0 005.434 5.432zM2.902 5.432A3.797 3.797 0 016.696 1.64H40.37c2.092 0 3.793 1.7 3.793 3.791v9.306a3.797 3.797 0 01-3.793 3.791h-2.564a1.32 1.32 0 00-1.318 1.318v2.096l-3.03-3.028a1.31 1.31 0 00-.93-.386h-17.99a1.31 1.31 0 00-.932.386l-3.028 3.028v-2.096a1.32 1.32 0 00-1.319-1.318H6.696a3.797 3.797 0 01-3.794-3.791V5.432z"/><path d="M11.497 7.154h27.398a.82.82 0 100-1.64H11.497a.82.82 0 100 1.64zm-3.056.01a.83.83 0 100-1.66.83.83 0 000 1.66zm-.271 3.789h27.634a.82.82 0 100-1.64H8.17a.82.82 0 100 1.64zm31.34-.821a.83.83 0 10-1.661 0 .83.83 0 001.66 0zm-.615 2.978H11.497a.82.82 0 100 1.641h27.398a.82.82 0 100-1.64zM8.441 13.1a.83.83 0 100 1.662.83.83 0 000-1.662z"/></g></svg>