<svg width="14" height="14" viewBox="0 0 14 14" fill="none" xmlns="http://www.w3.org/2000/svg">
<path d="M1 11V7C1 5.4087 1.63214 3.88258 2.75736 2.75736C3.88258 1.63214 5.4087 1 7 1C8.5913 1 10.1174 1.63214 11.2426 2.75736C12.3679 3.88258 13 5.4087 13 7V11" stroke="white" stroke-width="1.5" stroke-linecap="round" stroke-linejoin="round"/>
<path d="M13 11.6666C13 12.0202 12.8595 12.3593 12.6095 12.6094C12.3594 12.8594 12.0203 12.9999 11.6667 12.9999H11C10.6464 12.9999 10.3072 12.8594 10.0572 12.6094C9.80714 12.3593 9.66667 12.0202 9.66667 11.6666V9.66659C9.66667 9.31296 9.80714 8.97383 10.0572 8.72378C10.3072 8.47373 10.6464 8.33325 11 8.33325H13V11.6666ZM1 11.6666C1 12.0202 1.14048 12.3593 1.39052 12.6094C1.64057 12.8594 1.97971 12.9999 2.33333 12.9999H3C3.35362 12.9999 3.69276 12.8594 3.94281 12.6094C4.19286 12.3593 4.33333 12.0202 4.33333 11.6666V9.66659C4.33333 9.31296 4.19286 8.97383 3.94281 8.72378C3.69276 8.47373 3.35362 8.33325 3 8.33325H1V11.6666Z" stroke="white" stroke-width="1.5" stroke-linecap="round" stroke-linejoin="round"/>
</svg>
