<svg width="13" height="15" viewBox="0 0 13 15" fill="none" xmlns="http://www.w3.org/2000/svg">
<g opacity="0.5">
<path fill-rule="evenodd" clip-rule="evenodd" d="M6.13636 15C6.13636 15 12.2727 10.9091 12.2727 6.13636C12.2727 4.5089 11.6262 2.94809 10.4754 1.7973C9.32464 0.646508 7.76383 0 6.13636 0C4.5089 0 2.94809 0.646508 1.7973 1.7973C0.646508 2.94809 0 4.5089 0 6.13636C0 10.9091 6.13636 15 6.13636 15ZM8.82348 6.17647C8.82348 7.6384 7.63835 8.82353 6.17642 8.82353C4.71449 8.82353 3.52936 7.6384 3.52936 6.17647C3.52936 4.71454 4.71449 3.52942 6.17642 3.52942C7.63835 3.52942 8.82348 4.71454 8.82348 6.17647Z" fill="#888888"/>
</g>
</svg>
